<svg width="143" height="65" viewBox="0 0 143 65" fill="none" xmlns="http://www.w3.org/2000/svg">
<g filter="url(#filter0_d)">
<rect x="69.1729" y="15.1387" width="6.98275" height="5.41021" rx="1.03053" fill="#FF8E50"/>
<rect x="69.1729" y="23.6406" width="6.98275" height="21.6408" fill="#333333"/>
<path fill-rule="evenodd" clip-rule="evenodd" d="M105.473 42.9037C103.058 44.4086 100.186 45.2813 97.1041 45.2813C88.5342 45.2813 81.5869 38.5336 81.5869 30.21C81.5869 21.8863 88.5342 15.1387 97.1041 15.1387C105.674 15.1387 112.621 21.8863 112.621 30.21C112.621 33.3237 111.649 36.217 109.983 38.6189L111.953 40.333C112.382 40.7067 112.426 41.3564 112.05 41.7843L109.326 44.8909C108.95 45.3188 108.298 45.3627 107.869 44.9891L105.473 42.9037ZM104.756 34.0688C105.322 32.9017 105.639 31.5927 105.639 30.21C105.639 25.3012 101.644 21.3218 96.7161 21.3218C91.7884 21.3218 87.7937 25.3012 87.7937 30.21C87.7937 35.1188 91.7884 39.0982 96.7161 39.0982C97.9763 39.0982 99.1755 38.8379 100.262 38.3684L96.8483 35.3966C96.419 35.0229 96.3752 34.3731 96.7505 33.9453L99.4754 30.8386C99.8507 30.4108 100.503 30.3668 100.932 30.7405L104.756 34.0688Z" fill="#333333"/>
<path d="M139 21.5416V16.6846C132.907 16.6956 120.103 16.7176 119.825 16.7176C119.547 16.7176 119.477 16.9489 119.477 17.0645V21.6407C119.477 21.9711 119.709 22.0427 119.825 22.0372H130.051C130.316 22.0372 130.294 22.2354 130.249 22.3345L123.968 28.5958C123.796 28.7676 123.896 29.207 123.968 29.4053L124.648 32.2137C124.653 32.3679 124.78 32.6763 125.244 32.6763C131.708 32.6763 132.851 35.5674 132.851 36.3769C132.851 37.1864 132.222 39.7305 128.924 39.7305C126.285 39.7305 123.206 37.3626 121.996 36.1786L118.052 40.1105V40.6722C118.709 41.1898 120.594 42.5258 122.874 43.7285C125.155 44.9311 127.857 45.2649 128.924 45.2814C134.691 45.2814 138.983 41.5643 138.983 36.1126C138.983 31.7512 134.144 29.0528 131.724 28.2488L139 21.5416Z" fill="#333333"/>
<path fill-rule="evenodd" clip-rule="evenodd" d="M53.1203 38.0257C54.4629 34.8916 55.2068 31.436 55.2068 27.8053C55.2068 13.5534 43.7438 2 29.6034 2C15.463 2 4 13.5534 4 27.8053C4 42.0572 15.463 53.6107 29.6034 53.6107C34.0432 53.6107 38.2191 52.4717 41.859 50.4678C39.5462 48.8472 34.7608 47.6846 30.8428 47.328C30.4188 47.3562 29.9909 47.3705 29.5598 47.3705C19.0393 47.3705 10.5108 38.841 10.5108 28.3194C10.5108 17.7977 19.0393 9.26819 29.5598 9.26819C39.2744 9.26819 47.2906 16.5411 48.4616 25.9397C48.5303 26.2032 48.5866 26.4654 48.6288 26.7253C49.1992 30.2374 51.0705 35.3799 53.1203 38.0257Z" fill="#333333"/>
<rect width="3.0975" height="16.2619" rx="1" transform="matrix(0.708463 0.705748 -0.708463 0.705748 54.3135 39.8721)" fill="#FF8E50"/>
<rect width="3.0975" height="16.2619" rx="1" transform="matrix(0.708463 0.705747 -0.708463 0.705747 57.0576 42.6035)" fill="#FF8E50"/>
<rect width="3.0975" height="16.2619" rx="1" transform="matrix(0.708464 0.705747 -0.708464 0.705747 59.8008 45.3359)" fill="#FF8E50"/>
</g>
<defs>
<filter id="filter0_d" x="0" y="0" width="143" height="65" filterUnits="userSpaceOnUse" color-interpolation-filters="sRGB">
<feFlood flood-opacity="0" result="BackgroundImageFix"/>
<feColorMatrix in="SourceAlpha" type="matrix" values="0 0 0 0 0 0 0 0 0 0 0 0 0 0 0 0 0 0 127 0"/>
<feOffset dy="2"/>
<feGaussianBlur stdDeviation="2"/>
<feColorMatrix type="matrix" values="0 0 0 0 0 0 0 0 0 0 0 0 0 0 0 0 0 0 0.25 0"/>
<feBlend mode="normal" in2="BackgroundImageFix" result="effect1_dropShadow"/>
<feBlend mode="normal" in="SourceGraphic" in2="effect1_dropShadow" result="shape"/>
</filter>
</defs>
</svg>
