<svg width="143" height="65" viewBox="0 0 143 65" fill="none" xmlns="http://www.w3.org/2000/svg">
<g filter="url(#filter0_d)">
<rect x="69.1729" y="13.1387" width="6.98275" height="5.41021" rx="1.03053" fill="#F83D47"/>
<rect x="69.1729" y="21.6406" width="6.98275" height="21.6408" fill="#333333"/>
<path fill-rule="evenodd" clip-rule="evenodd" d="M105.473 40.9037C103.058 42.4086 100.186 43.2813 97.1041 43.2813C88.5342 43.2813 81.5869 36.5336 81.5869 28.21C81.5869 19.8863 88.5342 13.1387 97.1041 13.1387C105.674 13.1387 112.621 19.8863 112.621 28.21C112.621 31.3237 111.649 34.217 109.983 36.6189L111.953 38.333C112.382 38.7067 112.426 39.3564 112.05 39.7843L109.326 42.8909C108.95 43.3188 108.298 43.3627 107.869 42.9891L105.473 40.9037ZM104.756 32.0688C105.322 30.9017 105.639 29.5927 105.639 28.21C105.639 23.3012 101.644 19.3218 96.7161 19.3218C91.7884 19.3218 87.7937 23.3012 87.7937 28.21C87.7937 33.1188 91.7884 37.0982 96.7161 37.0982C97.9763 37.0982 99.1755 36.8379 100.262 36.3684L96.8483 33.3966C96.419 33.0229 96.3752 32.3731 96.7505 31.9453L99.4754 28.8386C99.8507 28.4108 100.503 28.3668 100.932 28.7405L104.756 32.0688Z" fill="#333333"/>
<path d="M139 19.5416V14.6846C132.907 14.6956 120.103 14.7176 119.825 14.7176C119.547 14.7176 119.477 14.9489 119.477 15.0645V19.6407C119.477 19.9711 119.709 20.0427 119.825 20.0372H130.051C130.316 20.0372 130.294 20.2354 130.249 20.3345L123.968 26.5958C123.796 26.7676 123.896 27.207 123.968 27.4053L124.648 30.2137C124.653 30.3679 124.78 30.6763 125.244 30.6763C131.708 30.6763 132.851 33.5674 132.851 34.3769C132.851 35.1864 132.222 37.7305 128.924 37.7305C126.285 37.7305 123.206 35.3626 121.996 34.1786L118.052 38.1105V38.6722C118.709 39.1898 120.594 40.5258 122.874 41.7285C125.155 42.9311 127.857 43.2649 128.924 43.2814C134.691 43.2814 138.983 39.5643 138.983 34.1126C138.983 29.7512 134.144 27.0528 131.724 26.2488L139 19.5416Z" fill="#333333"/>
<path fill-rule="evenodd" clip-rule="evenodd" d="M53.1203 36.0257C54.4629 32.8916 55.2068 29.436 55.2068 25.8053C55.2068 11.5534 43.7438 0 29.6034 0C15.463 0 4 11.5534 4 25.8053C4 40.0572 15.463 51.6107 29.6034 51.6107C34.0432 51.6107 38.2191 50.4717 41.859 48.4678C39.5462 46.8472 34.7608 45.6846 30.8428 45.328C30.4188 45.3562 29.9909 45.3705 29.5598 45.3705C19.0393 45.3705 10.5108 36.841 10.5108 26.3194C10.5108 15.7977 19.0393 7.26819 29.5598 7.26819C39.2744 7.26819 47.2906 14.5411 48.4616 23.9397C48.5303 24.2032 48.5866 24.4654 48.6288 24.7253C49.1992 28.2374 51.0705 33.3799 53.1203 36.0257Z" fill="#333333"/>
<rect width="3.0975" height="16.2619" rx="1" transform="matrix(0.708463 0.705748 -0.708463 0.705748 54.3135 37.8721)" fill="#F83D47"/>
<rect width="3.0975" height="16.2619" rx="1" transform="matrix(0.708463 0.705747 -0.708463 0.705747 57.0576 40.6035)" fill="#F83D47"/>
<rect width="3.0975" height="16.2619" rx="1" transform="matrix(0.708464 0.705747 -0.708464 0.705747 59.8008 43.3359)" fill="#F83D47"/>
</g>
<defs>
<filter id="filter0_d" x="0" y="0" width="143" height="65" filterUnits="userSpaceOnUse" color-interpolation-filters="sRGB">
<feFlood flood-opacity="0" result="BackgroundImageFix"/>
<feColorMatrix in="SourceAlpha" type="matrix" values="0 0 0 0 0 0 0 0 0 0 0 0 0 0 0 0 0 0 127 0"/>
<feOffset dy="4"/>
<feGaussianBlur stdDeviation="2"/>
<feColorMatrix type="matrix" values="0 0 0 0 0 0 0 0 0 0 0 0 0 0 0 0 0 0 0.25 0"/>
<feBlend mode="normal" in2="BackgroundImageFix" result="effect1_dropShadow"/>
<feBlend mode="normal" in="SourceGraphic" in2="effect1_dropShadow" result="shape"/>
</filter>
</defs>
</svg>
